<svg id="svg" version="1.1" xmlns="http://www.w3.org/2000/svg" style="display: block;" viewBox="0 0 910 910"><path d="M0 0 C300.3 0 600.6 0 910 0 C910 300.3 910 600.6 910 910 C609.7 910 309.4 910 0 910 C0 609.7 0 309.4 0 0 Z " transform="translate(0,0)" style="fill: #070504;"/><path d="M0 0 C2.30025071 2.30025071 2.30175461 2.95146355 2.75 6.0625 C4.57278201 15.92274602 7.84041033 26.94014776 13.7265625 35.1640625 C15 37 15 37 16.80859375 40.32421875 C18.92703958 44.06404491 21.48811764 47.07937591 24.4375 50.1875 C24.95320557 50.73849365 25.46891113 51.2894873 26.00024414 51.85717773 C32.47948444 58.68885755 39.3379271 65.30779879 46.72265625 71.15625 C49.57679919 73.46697979 51.68061223 76.15874999 54 79 C54.77472656 79.75152344 55.54945313 80.50304687 56.34765625 81.27734375 C59.21421361 84.21989232 61.57500399 87.2767043 63.9375 90.625 C64.37280029 91.24036621 64.80810059 91.85573242 65.2565918 92.48974609 C73.44814921 104.2450344 78.78194961 116.94584234 83.25 130.5 C83.50845703 131.25861328 83.76691406 132.01722656 84.03320312 132.79882812 C87.21091449 142.75565708 87.15837364 153.21313091 87.203125 163.58203125 C87.20882507 164.63927902 87.21452515 165.69652679 87.22039795 166.78581238 C87.22976944 169.00506615 87.23635029 171.22433335 87.24023438 173.44360352 C87.24994647 176.79403454 87.28104882 180.14385266 87.3125 183.49414062 C87.37014017 195.07825631 86.99706001 205.74846245 84 217 C83.66983887 218.35001099 83.66983887 218.35001099 83.33300781 219.72729492 C82.75397737 222.05745521 82.13667826 224.37251446 81.5 226.6875 C81.06294578 228.30185175 80.62674663 229.91643524 80.19140625 231.53125 C79.98531738 232.294375 79.77922852 233.0575 79.56689453 233.84375 C78.7955668 236.77758571 78.12039726 239.7320102 77.4375 242.6875 C76.40849821 246.86164285 75.02466868 250.44737274 72.95703125 254.2109375 C71.83135608 256.22483553 71.83135608 256.22483553 70.6875 259.4375 C68.43393099 264.19503458 65.31345558 267.94082472 62 272 C61.38125 272.86625 60.7625 273.7325 60.125 274.625 C50.92855868 284.90337559 39.56586109 289.23501367 26.03125 290.34765625 C22.36446483 291.1367711 21.08667628 291.88532878 19 295 C18.18774754 300.9515953 20.0037824 306.05486389 21.875 311.625 C22.14441406 312.45773437 22.41382813 313.29046875 22.69140625 314.1484375 C23.76831639 317.44745977 24.87179894 320.68913337 26.1953125 323.8984375 C27 326 27 326 27 329 C27.66 329 28.32 329 29 329 C29.79211929 330.89564426 30.58367576 332.79152371 31.375 334.6875 C31.81585938 335.74324219 32.25671875 336.79898437 32.7109375 337.88671875 C33.82757462 340.58356657 34.92291801 343.28716264 36 346 C40.66161023 340.91593135 44.81286627 335.60810444 48.82421875 330 C51.96119465 325.67469033 55.2347476 321.46107154 58.5078125 317.23828125 C60.8654886 314.18870948 63.1781032 311.10651246 65.48681641 308.01977539 C66.91469437 306.11386472 68.35032476 304.21412625 69.7890625 302.31640625 C70.73486485 301.06547438 71.68016271 299.81416094 72.625 298.5625 C73.13208496 297.89089844 73.63916992 297.21929687 74.16162109 296.52734375 C78.65459201 290.53855743 82.95720822 284.42394398 87.16650391 278.23266602 C88.39583207 276.45392563 89.69178913 274.72155437 91 273 C91.66 273 92.32 273 93 273 C93.29390625 272.02546875 93.29390625 272.02546875 93.59375 271.03125 C95.60848827 266.68836973 98.52227618 263.22686388 101.5 259.5 C102.76590153 257.89474928 104.03152446 256.28927883 105.296875 254.68359375 C105.92271484 253.8932373 106.54855469 253.10288086 107.19335938 252.28857422 C109.73745817 249.06581988 112.24788726 245.8178963 114.75 242.5625 C115.52859375 241.55316406 116.3071875 240.54382813 117.109375 239.50390625 C118.46322094 237.71089954 119.75374137 235.86938795 121 234 C121.66 234 122.32 234 123 234 C123.309375 232.99453125 123.309375 232.99453125 123.625 231.96875 C125.49105632 227.93976476 128.15405924 224.88196758 131 221.5 C132.18237293 220.07145634 133.36334638 218.64175328 134.54296875 217.2109375 C135.12868652 216.50163086 135.7144043 215.79232422 136.31787109 215.06152344 C138.7108489 212.12882321 141.02021606 209.13669026 143.3125 206.125 C146.24851035 202.27535272 149.21365311 198.45853952 152.25 194.6875 C154.48684314 191.90812234 156.68649223 189.11496203 158.8125 186.25 C164.61695598 178.43691756 170.71201211 170.83297205 176.8125 163.25 C184.67513654 153.44577362 192.35547085 143.49244985 199.95825195 133.48583984 C207.20720124 123.94780674 214.58907942 114.493785 222.37890625 105.38818359 C224.93463654 102.39473681 226.98857132 99.37194411 229 96 C230.4897056 94.14128476 232.01373198 92.30979633 233.5625 90.5 C237.19888018 86.20807732 240.71450138 81.84854561 244.125 77.375 C252.64027891 66.21555549 252.64027891 66.21555549 257 61 C257.56990646 60.20606102 257.56990646 60.20606102 258.15132618 59.39608288 C260.97105619 57.26667706 263.87740952 57.59684687 267.27018738 57.63923645 C268.38884208 57.63539154 268.38884208 57.63539154 269.53009588 57.63146895 C272.03615103 57.62651632 274.54160751 57.64304793 277.04760742 57.65942383 C278.84113043 57.66026978 280.63465448 57.65979558 282.42817688 57.65809631 C287.30396733 57.6572337 292.17953749 57.67490249 297.05527663 57.69581819 C302.14819336 57.71454068 307.24111484 57.71633193 312.33406067 57.71989441 C321.98131909 57.72922791 331.62847583 57.75385934 341.27568942 57.78394288 C352.25739789 57.81744631 363.23911115 57.83396268 374.22085798 57.84902918 C396.81396175 57.88040776 419.40697518 57.9331936 442 58 C437.65304247 64.58707002 437.65304247 64.58707002 435.01953125 67.359375 C434.49552734 67.91753906 433.97152344 68.47570312 433.43164062 69.05078125 C432.63016602 69.89189453 432.63016602 69.89189453 431.8125 70.75 C427.97890912 74.56073002 427.97890912 74.56073002 425 79 C424.34 79 423.68 79 423 79 C422.71125 79.598125 422.4225 80.19625 422.125 80.8125 C421 83 421 83 419 86 C418.34 86 417.68 86 417 86 C416.78214844 86.5259375 416.56429687 87.051875 416.33984375 87.59375 C414.4914471 90.91331949 412.04906911 93.65117259 409.5625 96.5 C408.76549683 97.42159912 408.76549683 97.42159912 407.95239258 98.36181641 C403.53984272 103.43928895 399.010147 108.4034744 394.4453125 113.34375 C390.27379877 117.87510677 386.25320506 122.52830509 382.2578125 127.21484375 C381.23455265 128.41421409 380.21110963 129.61342817 379.1875 130.8125 C378.67026367 131.41860107 378.15302734 132.02470215 377.62011719 132.64916992 C374.4151062 136.39051541 371.14798497 140.0610693 367.8125 143.6875 C363.76899144 148.09272818 359.97897136 152.65401165 356.22265625 157.3046875 C353.29268767 160.85772497 350.2166532 164.2628464 347.1171875 167.66796875 C345.21948831 169.75823889 343.35266585 171.86986115 341.5 174 C338.10746907 177.89512811 334.64805799 181.72782763 331.1875 185.5625 C329.27445851 187.69417481 327.38112388 189.8401911 325.5 192 C320.58650647 197.63639833 315.58297308 203.19330484 310.51953125 208.6953125 C306.39955575 213.17937886 302.38455589 217.69569804 298.5625 222.4375 C294.42588603 227.56250846 290.03680784 232.39563155 285.5625 237.22265625 C282.90133655 240.10693553 280.31300992 243.04337133 277.7421875 246.0078125 C274.92536738 249.22883999 272.04689854 252.39417636 269.1796875 255.5703125 C267.30854906 257.6560618 265.46075169 259.75817628 263.625 261.875 C260.17148439 265.84252724 256.6099606 269.7084764 253.04736328 273.57763672 C249.93593201 276.96250651 246.88897187 280.39295284 243.8828125 283.87109375 C241.90678256 286.10540146 239.88121315 288.29018313 237.85009766 290.47436523 C232.70764161 295.9730661 232.70764161 295.9730661 228.125 301.9375 C226 305 226 305 223.765625 307.21484375 C213.51745337 317.53538948 204.08988937 329.74553491 198 343 C199.65 342.67 201.3 342.34 203 342 C203 341.34 203 340.68 203 340 C203.66 340 204.32 340 205 340 C205.33 339.01 205.66 338.02 206 337 C207.73768402 335.43778244 209.53913218 333.94556521 211.375 332.5 C215.1972306 329.54860058 215.1972306 329.54860058 218.6015625 326.15625 C220 325 220 325 221.89453125 324.98046875 C224.98095707 326.4750089 226.54329337 328.65036906 228.6875 331.3125 C229.12247803 331.84939453 229.55745605 332.38628906 230.00561523 332.93945312 C234.48705285 338.51259593 238.75273597 344.24756521 243 350 C244.56084014 352.0845772 246.12332647 354.16792286 247.6875 356.25 C252 362 252 362 253.38208008 363.84863281 C256.99308183 368.67432477 260.64430021 373.46769707 264.3125 378.25 C271.3307352 387.41800955 278.26891348 396.63946342 285.10522461 405.94384766 C285.70987549 406.76675293 286.31452637 407.5896582 286.9375 408.4375 C287.84157593 409.66799072 287.84157593 409.66799072 288.76391602 410.92333984 C292.24947728 415.65667822 295.77330561 420.35445955 299.375 425 C302.31400932 428.79103482 305.19394814 432.60953766 308 436.5 C311.25067233 441.00543185 314.6076809 445.4197834 318.0078125 449.8125 C321.38090737 454.17708033 324.69787815 458.5815418 328 463 C331.63330414 467.85997683 335.2910875 472.69743381 339 477.5 C344.2720635 484.32914165 349.44414251 491.23134435 354.60986328 498.14111328 C356.5704663 500.76282585 358.53519084 503.38143878 360.5 506 C362.95962464 509.27801692 365.41723278 512.55751143 367.87109375 515.83984375 C373.01292732 522.71323747 378.18078924 529.56303619 383.42822266 536.35620117 C386.83507793 540.7712075 390.17824006 545.23162012 393.515625 549.69921875 C395.93932152 552.93114796 398.39776694 556.13597071 400.85742188 559.34057617 C405.21068515 565.01340679 409.55832017 570.68983151 413.8125 576.4375 C414.43769531 577.28183594 415.06289063 578.12617187 415.70703125 578.99609375 C417 581 417 581 417 583 C417.66 583 418.32 583 419 583 C420.15625 584.51171875 420.15625 584.51171875 421.5 586.6875 C425.18689774 592.39997047 429.33731522 597.72053463 433.50830078 603.08154297 C436.3485887 606.73440426 439.17701061 610.39625965 442 614.0625 C442.56404541 614.78888672 443.12809082 615.51527344 443.70922852 616.26367188 C444.23830811 616.95138672 444.7673877 617.63910156 445.3125 618.34765625 C445.78300781 618.95617432 446.25351562 619.56469238 446.73828125 620.19165039 C448.03903121 622.05594121 449.03484196 623.9447911 450 626 C450.66 626 451.32 626 452 626 C452 626.66 452 627.32 452 628 C426.54858534 628.21018142 401.09730061 628.36892001 375.6451931 628.46630955 C363.82745744 628.51273 352.01026079 628.57602376 340.19287109 628.67895508 C329.89357384 628.76862086 319.5946669 628.82671458 309.29499018 628.84679645 C303.84042908 628.85853686 298.38698462 628.88615216 292.93278122 628.95157051 C287.79921449 629.01264447 282.66722453 629.03150809 277.53332901 629.01796913 C275.64907003 629.02044594 273.76475856 629.03836126 271.8808136 629.07284927 C257.62431765 629.32103901 257.62431765 629.32103901 253.59309769 626.04249382 C252.0229919 623.73101475 250.99038717 621.60321587 250 619 C248.98292969 617.38351562 248.98292969 617.38351562 247.9453125 615.734375 C247.34460938 614.74953125 246.74390625 613.7646875 246.125 612.75 C245.44695312 611.64269531 244.76890625 610.53539062 244.0703125 609.39453125 C242.70964419 607.16354869 241.35023103 604.93180004 239.9921875 602.69921875 C236.73882687 597.37263812 233.43252746 592.10933254 229.9375 586.9375 C227.27716832 582.99376613 224.79992127 579.00396395 222.4375 574.875 C219.75193102 570.18746142 216.81584831 565.79919864 213.671875 561.41015625 C212.06536806 559.09423386 210.61303674 556.74312023 209.1875 554.3125 C206.74274336 550.15264991 204.12617231 546.12577837 201.4375 542.12109375 C201.00132858 541.46913025 200.56515717 540.81716675 200.11576843 540.14544678 C199.20083933 538.7779744 198.28540174 537.41084211 197.36947632 536.04403687 C193.93540595 530.91845249 190.51130866 525.78618506 187.08520508 520.65527344 C186.23176999 519.37765835 185.37792406 518.10031761 184.52368164 516.82324219 C179.80780128 509.77222743 175.15185108 502.69569231 170.61987305 495.52441406 C168.00654846 491.45180272 165.25494733 487.47756694 162.5 483.5 C158.40983588 477.56504686 154.42885119 471.5928359 150.61328125 465.4765625 C148.80085428 462.69428963 146.85423931 460.04091417 144.875 457.375 C141.94842521 453.41849601 139.5030033 449.43734343 137.19921875 445.09765625 C135.99857928 442.9975149 134.67276448 441.15735036 133.1875 439.25 C128.96425535 433.82483977 125.53471618 427.88521272 122 422 C117.77418162 422.46953538 115.72448902 425.02774704 113 428 C111.77665479 429.2857399 110.55264311 430.57084586 109.328125 431.85546875 C107.96792607 433.29870308 106.60857033 434.7427325 105.25 436.1875 C104.58484375 436.89197266 103.9196875 437.59644531 103.234375 438.32226562 C99.7397647 442.03528907 96.30134812 445.7838632 92.92578125 449.60546875 C86.54666119 456.72064112 79.71419149 463.39229683 72.9375 470.125 C71.5811454 471.47632686 70.2250239 472.82788772 68.86914062 474.1796875 C65.58210445 477.45582527 62.29194304 480.72879311 59 484 C60.48355284 486.48999094 61.97010603 488.95515904 63.578125 491.3671875 C77.34667622 512.02001433 80.65420451 531.92772401 80.390625 556.41796875 C80.38314067 558.49831084 80.37745815 560.5786601 80.37347412 562.65901184 C80.35839006 568.06603355 80.31926236 573.4726076 80.2746582 578.87945557 C80.23332811 584.42413278 80.2153835 589.96888417 80.1953125 595.51367188 C80.15274688 606.34264181 80.08471153 617.17128331 80 628 C79.36454758 627.92935333 78.72909515 627.85870667 78.0743866 627.78591919 C72.88227366 627.23339682 67.77802578 626.87213052 62.55078125 626.8671875 C61.89023239 626.86623077 61.22968353 626.86527405 60.54911804 626.86428833 C59.16531274 626.86361529 57.78150411 626.86540753 56.39770508 626.86962891 C54.33341982 626.87494611 52.26935644 626.86967601 50.20507812 626.86328125 C41.13160491 626.85814866 32.02593322 626.9961585 23 628 C22.67 628.33 22.34 628.66 22 629 C18.99954081 629.33271221 16.00702361 629.61664853 13 629.875 C6.16803217 630.51492069 -0.609534 631.28319531 -7.375 632.4375 C-8.05691406 632.54755371 -8.73882812 632.65760742 -9.44140625 632.77099609 C-12.55721492 633.32839001 -14.96284977 633.97837364 -17.7109375 635.578125 C-22.7998054 637.77806314 -27.76874795 637.39892769 -33.25 637.3125 C-34.98358765 637.2966687 -34.98358765 637.2966687 -36.75219727 637.28051758 C-66.73117077 636.82064716 -93.52476619 629.00988693 -115 607 C-115.6960616 605.68177374 -116.36912865 604.35063821 -117 603 C-117.928125 602.3503125 -117.928125 602.3503125 -118.875 601.6875 C-121.33470918 599.73420153 -122.53007181 597.56494404 -124 594.8203125 C-125.09036658 592.76701647 -125.09036658 592.76701647 -127 590.0625 C-135.24073579 577.44387332 -138.78992723 563.70893027 -141 549 C-141.17273438 548.04843018 -141.34546875 547.09686035 -141.5234375 546.11645508 C-144.07045734 529.46035455 -143.93902241 507.7956233 -135 493 C-140.59967378 497.79502751 -140.59967378 497.79502751 -145.875 502.9375 C-148 505 -148 505 -150 505 C-150.11214844 503.85724609 -150.11214844 503.85724609 -150.2265625 502.69140625 C-151.07359285 496.03972676 -152.35646985 491.49852151 -156.5625 486.23046875 C-158 484 -158 484 -158.78125 480.58203125 C-160.36291762 475.9333479 -162.61064427 474.28761906 -166.5 471.5 C-167.44613159 470.79073364 -167.44613159 470.79073364 -168.41137695 470.06713867 C-170.25997848 468.69038052 -172.1249119 467.34038489 -174 466 C-175.36705078 465.01966797 -175.36705078 465.01966797 -176.76171875 464.01953125 C-180.03095831 461.71895526 -183.32420356 459.45653804 -186.63671875 457.21875 C-206.54636582 443.35868185 -221.58432195 423.18432903 -226 399 C-226.94740794 393.48118311 -227.18306693 388.14374138 -227.1875 382.5625 C-227.19974609 381.75490234 -227.21199219 380.94730469 -227.22460938 380.11523438 C-227.25442944 367.77966623 -222.40795841 357.04903442 -214 348 C-213.34 348 -212.68 348 -212 348 C-211.83395264 348.57443848 -211.66790527 349.14887695 -211.49682617 349.74072266 C-210.73298573 352.37058054 -209.96032267 354.99776832 -209.1875 357.625 C-208.79594727 358.98044922 -208.79594727 358.98044922 -208.39648438 360.36328125 C-206.13425327 368.01576672 -203.19379679 374.12449297 -198.25 380.4375 C-197.8075293 381.005896 -197.36505859 381.57429199 -196.90917969 382.15991211 C-191.93287222 388.468708 -186.91884869 393.7944253 -180 398 C-178.90558594 398.70962891 -178.90558594 398.70962891 -177.7890625 399.43359375 C-172.51641047 402.76850458 -167.35873114 405.1309662 -161.45703125 407.13671875 C-158.49430485 408.17767667 -155.79491883 409.57280741 -153 411 C-151.54508121 411.57127372 -150.0862312 412.1325714 -148.625 412.6875 C-134.3469843 418.36869243 -121.47610981 425.71618868 -109.7890625 435.73828125 C-107.15840058 438.14270814 -107.15840058 438.14270814 -104 439 C-103.731875 438.13375 -103.46375 437.2675 -103.1875 436.375 C-102 433 -102 433 -100.5 430.1875 C-95.78154996 420.16079366 -94.6084678 405.56505084 -97.95703125 394.97265625 C-99.43994383 392.40426876 -101.085755 390.26696577 -103 388 C-103.85991655 386.89798753 -104.7150336 385.79222018 -105.56640625 384.68359375 C-107.44023125 382.25773038 -109.33665492 379.85261071 -111.25390625 377.4609375 C-126.05046316 358.93066997 -126.05046316 358.93066997 -130 349 C-130.61295804 347.75830548 -131.23917804 346.52311236 -131.875 345.29296875 C-132.39320313 344.2884668 -132.39320313 344.2884668 -132.921875 343.26367188 C-133.63583641 341.88877879 -134.35453072 340.51633225 -135.078125 339.14648438 C-138.20118344 333.05768574 -140.43572357 326.97157709 -140 320 C-140.66 320 -141.32 320 -142 320 C-142.5009128 300.92164443 -142.52694428 285.20910682 -128.81640625 270.51953125 C-122.65679982 264.13522183 -116.18895001 258.24410923 -109.20703125 252.76953125 C-107.01325702 251.08769837 -107.01325702 251.08769837 -105.32421875 249.26171875 C-104 248 -104 248 -102 248 C-100.51318625 250.97362749 -100.84356563 254.0197455 -100.82421875 257.28125 C-100.8009913 258.77865944 -100.77687284 260.27605527 -100.75195312 261.7734375 C-100.71707832 264.12541416 -100.68763318 266.47689983 -100.67407227 268.82910156 C-100.60206733 279.282002 -100.18904214 288.68587389 -93.6875 297.375 C-88.14623614 302.78739726 -84.65078488 304.26208785 -76.9375 304.5625 C-71.29529903 304.456356 -71.29529903 304.456356 -66.4375 301.9375 C-65.633125 300.968125 -64.82875 299.99875 -64 299 C-63.55398438 298.46890625 -63.10796875 297.9378125 -62.6484375 297.390625 C-56.3570135 289.36997919 -55.51980329 281.40317453 -55.3125 271.5 C-55.27833984 270.39140625 -55.24417969 269.2828125 -55.20898438 268.140625 C-55.12711333 265.42718457 -55.05776596 262.71404253 -55 260 C-55.66 260 -56.32 260 -57 260 C-57.09474609 258.81083984 -57.09474609 258.81083984 -57.19140625 257.59765625 C-58.09138508 249.02417372 -60.00482567 241.08208254 -62.4375 232.8125 C-67.26512848 216.05135198 -69.25241305 200.48455213 -69.3125 183.0625 C-69.31635712 182.35165253 -69.32021423 181.64080505 -69.32418823 180.90841675 C-69.32965593 178.8670158 -69.31868282 176.82647381 -69.30078125 174.78515625 C-69.29216064 173.59801025 -69.28354004 172.41086426 -69.2746582 171.18774414 C-69.0027748 168.03220498 -68.26650862 165.87311252 -67 163 C-66.87625 161.9275 -66.7525 160.855 -66.625 159.75 C-65.98092168 155.88553008 -64.82938624 153.0429057 -63.17578125 149.53125 C-61.84112441 146.65796883 -60.63842872 143.74407223 -59.4375 140.8125 C-57.76976149 136.78213194 -56.03548205 132.85670284 -54 129 C-51 130 -51 130 -49.39453125 132.87109375 C-48.87246094 134.04800781 -48.35039062 135.22492188 -47.8125 136.4375 C-47.28269531 137.61183594 -46.75289062 138.78617188 -46.20703125 139.99609375 C-45 143 -45 143 -45 145 C-44.34 145 -43.68 145 -43 145 C-42.49210938 146.03898438 -41.98421875 147.07796875 -41.4609375 148.1484375 C-36.44586361 158.340125 -31.36056768 168.18697633 -24.3671875 177.19140625 C-23 179 -23 179 -21 182.1875 C-18.56331307 185.61409099 -16.49661272 187.64513837 -13 190 C-10.42101375 190.19289294 -10.42101375 190.19289294 -8 189 C-6.3280932 186.12688327 -6.3280932 186.12688327 -5.25 182.625 C-4.84265625 181.46226562 -4.4353125 180.29953125 -4.015625 179.1015625 C-3.68046875 178.07804688 -3.3453125 177.05453125 -3 176 C-2.67 175.01 -2.34 174.02 -2 173 C-1.9058672 171.17506688 -1.86928912 169.3468893 -1.8671875 167.51953125 C-1.86525391 165.8962793 -1.86525391 165.8962793 -1.86328125 164.24023438 C-1.86714844 163.10908203 -1.87101563 161.97792969 -1.875 160.8125 C-1.87113281 159.70068359 -1.86726562 158.58886719 -1.86328125 157.44335938 C-1.87288324 149.33447586 -2.01849282 142.12365837 -5.1171875 134.52734375 C-6.53497263 130.46846332 -7.44860442 126.26835351 -8.37817383 122.07421875 C-9.43125534 117.56562653 -11.01243573 113.59131833 -12.9543457 109.39428711 C-14.8204323 105.12141501 -16.19551398 100.68393673 -17.625 96.25 C-18.21999031 94.42143066 -18.81630209 92.59329067 -19.4140625 90.765625 C-19.6713916 89.96930664 -19.9287207 89.17298828 -20.19384766 88.35253906 C-20.76977555 86.6718482 -21.39785415 85.0086648 -22.05957031 83.35986328 C-27.25502738 70.32266493 -27.76441976 48.80648663 -22.37109375 35.9296875 C-21.69240234 34.47949219 -21.69240234 34.47949219 -21 33 C-20.46683334 31.69141099 -19.93714968 30.38139976 -19.41015625 29.0703125 C-14.70673406 17.84191898 -8.02194824 9.08583467 0 0 Z " transform="translate(350,163)" style="fill: #FD791B;"/><path d="M0 0 C0.12117188 1.07378906 0.24234375 2.14757812 0.3671875 3.25390625 C0.53615615 4.69013975 0.70544404 6.12633572 0.875 7.5625 C0.95363281 8.26697266 1.03226563 8.97144531 1.11328125 9.69726562 C1.52870804 13.16448149 2.08444471 16.29228465 3.05859375 19.6640625 C3.96969192 22.89260124 4.16470297 25.47957368 4.1875 28.8125 C4.71172916 35.67904265 7.10361108 40.18092248 12 45 C17.57679592 48.86777781 23.76132488 51.39109949 30 54 C43.14167633 59.98531793 51.54598405 66.43241263 57 80 C58.58652678 84.29582637 59.83696771 88.44317581 59 93 C57.40294602 95.1746187 55.66292108 97.0909104 53.796875 99.0390625 C51.78425311 101.10071281 51.78425311 101.10071281 50 104.375 C48 107 48 107 44.5625 107.9375 C39.72969303 109.37886348 38.44525448 111.78023793 36 116 C35.62875 116.63035156 35.2575 117.26070313 34.875 117.91015625 C33.90053495 119.59755712 32.94908405 121.29819411 32 123 C31.34 123.99 30.68 124.98 30 126 C30.05463542 128.64585039 30.05463542 128.64585039 30.5 131.5625 C31.19202301 138.44104197 31.15255044 144.80828728 27.1875 150.6875 C25 152 25 152 22.375 152 C19.42964076 150.75984874 19.34973429 149.78382698 18 147 C17.2575 146.71125 16.515 146.4225 15.75 146.125 C11.0990445 144.22233639 7.97036855 140.69814495 5.5 136.375 C3.52980611 133.25552634 1.08534224 131.99639792 -2 130 C-7.0007257 125.86896572 -10.41496118 121.5015487 -11.28125 114.8359375 C-11.75985216 103.22983504 -5.11048035 95.0852186 1.8125 86.375 C2.8953125 85.199375 2.8953125 85.199375 4 84 C4.66 84 5.32 84 6 84 C5.65790824 81.08974111 5.40242561 79.42739713 3.36328125 77.26171875 C2.68652344 76.74222656 2.00976562 76.22273438 1.3125 75.6875 C-4.97760297 70.50013422 -9.23638578 64.16952957 -13 57 C-13.37382812 56.41605469 -13.74765625 55.83210938 -14.1328125 55.23046875 C-18.62493395 47.26716255 -17.32357132 37.8352947 -17 29 C-16.34 29 -15.68 29 -15 29 C-15.10441406 28.10861328 -15.10441406 28.10861328 -15.2109375 27.19921875 C-15.84921741 17.42745734 -11.38540746 10.60553151 -5.25 3.3125 C-2.30260521 0 -2.30260521 0 0 0 Z " transform="translate(232,99)" style="fill: #FB621A;"/><path d="M0 0 C10.89281108 5.39403626 24.51192322 16.2170418 30.1796875 27.30859375 C31.79787906 32.26316904 32.67223966 35.8952684 31 41 C26.37965317 49.06765223 20.79808411 54.12451391 13 59 C8.94146104 61.91156056 6.74040186 64.84214889 4 69 C3.34 69 2.68 69 2 69 C2 56.79 2 44.58 2 32 C1.34 32 0.68 32 0 32 C-0.0515625 31.46375 -0.103125 30.9275 -0.15625 30.375 C-1.0434992 24.24491463 -3.13665309 19.1217183 -5.875 13.625 C-6.21466797 12.93535156 -6.55433594 12.24570312 -6.90429688 11.53515625 C-8.86433345 7.71961837 -10.855343 4.97543779 -14 2 C-14 1.34 -14 0.68 -14 0 C-12.88625 0.020625 -11.7725 0.04125 -10.625 0.0625 C-0.41339056 -0.11356223 -0.41339056 -0.11356223 0 0 Z " transform="translate(146,388)" style="fill: #FA7D12;"/><path d="M0 0 C2.65223249 3.97834874 3.59128215 8.10564344 4.90234375 12.67578125 C6.88494926 18.68004206 9.87258459 23.48621423 13.75 28.4375 C14.1924707 29.005896 14.63494141 29.57429199 15.09082031 30.15991211 C20.06712778 36.468708 25.08115131 41.7944253 32 46 C32.72960937 46.47308594 33.45921875 46.94617188 34.2109375 47.43359375 C39.48358953 50.76850458 44.64126886 53.1309662 50.54296875 55.13671875 C53.50569515 56.17767667 56.20508117 57.57280741 59 59 C60.45491879 59.57127372 61.9137688 60.1325714 63.375 60.6875 C76.37568059 65.86044348 87.95360236 72.42855474 99 81 C99.87398438 81.67675781 100.74796875 82.35351562 101.6484375 83.05078125 C105.68415623 86.35723853 105.68415623 86.35723853 107 88 C107 89.32 107 90.64 107 92 C104.21956663 90.65021467 101.56599415 89.18821603 98.9375 87.5625 C97.93009766 86.94568359 97.93009766 86.94568359 96.90234375 86.31640625 C95 85 95 85 93.57421875 83.5625 C86.15597506 76.19947897 75.55858784 72.36436333 66.0625 68.5625 C64.97243652 68.12542725 63.88237305 67.68835449 62.75927734 67.23803711 C57.80958048 65.30593536 53.28249241 63.74699455 48 63 C48 62.34 48 61.68 48 61 C47.46375 60.896875 46.9275 60.79375 46.375 60.6875 C43.37497956 59.81907303 40.7620465 58.44379704 38 57 C38 56.34 38 55.68 38 55 C36.88625 54.814375 36.88625 54.814375 35.75 54.625 C33.19858515 54.04513299 31.2732427 53.26291261 29 52 C29 51.34 29 50.68 29 50 C28.41863281 49.73445312 27.83726562 49.46890625 27.23828125 49.1953125 C20.29767563 45.48881107 14.9038014 39.02157966 10 33 C9.5359375 32.44699219 9.071875 31.89398437 8.59375 31.32421875 C1.46556617 22.21839855 -0.19736836 11.24999663 0 0 Z " transform="translate(138,515)" style="fill: #F78B03;"/><path d="M0 0 C2.56588452 2.56588452 2.3554254 3.74466869 2.4375 7.3125 C2.34902758 11.278146 2.1589396 12.74669001 0 16.1875 C-3.76502771 18.46220424 -6.76325535 18.88404514 -11 18 C-16.01395981 15.54217656 -19.48795192 11.95968468 -22 7 C-22.51472165 3.65430925 -22.68276871 1.99001463 -20.75 -0.8125 C-14.2924554 -5.19440526 -6.40919054 -3.33277908 0 0 Z " transform="translate(425,180)" style="fill: #F75511;"/><path d="M0 0 C2.92584944 1.3154029 3.83752812 2.40503374 6 5 C6.79867169 7.84993639 6.79474123 10.14929778 6 13 C3.5625 15.9375 3.5625 15.9375 1 18 C0.67 18.33 0.34 18.66 0 19 C-7.5979021 19.43006993 -7.5979021 19.43006993 -11 17 C-13.57483119 14.51712707 -13.97960187 13.16027098 -14.4375 9.5625 C-13.93235165 5.44914913 -12.89538484 3.89538484 -10 1 C-6.75740179 -0.6212991 -3.50438125 -0.55810516 0 0 Z " transform="translate(214,361)" style="fill: #F68C03;"/><path d="M0 0 C0 4.95 0 9.9 0 15 C-1.32 15.33 -2.64 15.66 -4 16 C-6.64698845 14.21482174 -8.56010623 12.87978754 -10 10 C-10.4375 7.125 -10.4375 7.125 -10 4 C-6.41354184 0.90260432 -4.78912885 0 0 0 Z " transform="translate(401,129)" style="fill: #D93F07;"/><path d="M0 0 C4.75 0.875 4.75 0.875 7 2 C7.4726477 10.19256018 7.4726477 10.19256018 5.5 13.5625 C5.005 14.036875 4.51 14.51125 4 15 C-2.09411765 12.85882353 -2.09411765 12.85882353 -4 10 C-3.79085853 6.02631205 -2.15493022 3.27924164 0 0 Z " transform="translate(346,57)" style="fill: #EC5103;"/><path d="M0 0 C0.99 0.66 1.98 1.32 3 2 C3.40443486 5.0838158 3.62945184 7.03987511 3 10 C0.5625 12.9375 0.5625 12.9375 -2 15 C-2.33 15.33 -2.66 15.66 -3 16 C-4.66617115 16.04063832 -6.33388095 16.042721 -8 16 C-7.59007812 15.59910156 -7.18015625 15.19820313 -6.7578125 14.78515625 C-2.38421215 10.17090324 -0.82479927 6.27131862 0 0 Z " transform="translate(217,364)" style="fill: #E97205;"/><path d="M0 0 C-1.44424635 3.23861303 -3.25772247 5.61969163 -5.625 8.25 C-6.25664062 8.95640625 -6.88828125 9.6628125 -7.5390625 10.390625 C-8.02117187 10.92171875 -8.50328125 11.4528125 -9 12 C-9.66 11.01 -10.32 10.02 -11 9 C-9.54782324 7.49403892 -8.08807139 5.99537896 -6.625 4.5 C-5.40683594 3.24703125 -5.40683594 3.24703125 -4.1640625 1.96875 C-2 0 -2 0 0 0 Z " transform="translate(464,588)" style="fill: #EC7605;"/><path d="M0 0 C2.52394612 3.12488567 4.39701907 6.31314387 6 10 C5.67 10.66 5.34 11.32 5 12 C2.2198076 10.98059612 1.17185783 10.30279713 -0.3125 7.6875 C-1.07479299 4.7076274 -0.83686751 2.9290363 0 0 Z " transform="translate(308,312)" style="fill: #DF5904;"/><path d="M0 0 C0.99 0.495 0.99 0.495 2 1 C1.01 1.495 1.01 1.495 0 2 C0 1.34 0 0.68 0 0 Z M0 3 C1.32 3.66 2.64 4.32 4 5 C0.37 5.33 -3.26 5.66 -7 6 C-5.52515531 1.57546593 -4.06913572 1.68351491 0 3 Z " transform="translate(383,447)" style="fill: #E46C08;"/><path d="M0 0 C1.90318884 2.85478326 2.4619099 4.41941308 3.125 7.6875 C3.29257813 8.49574219 3.46015625 9.30398438 3.6328125 10.13671875 C3.75398437 10.75160156 3.87515625 11.36648438 4 12 C3.01 12.33 2.02 12.66 1 13 C-0.10228696 8.59085217 -0.07654536 4.51617599 0 0 Z " transform="translate(138,515)" style="fill: #B96307;"/><path d="M0 0 C0.66 0 1.32 0 2 0 C2 3 2 3 0.6875 4.38671875 C-0.875 5.59114583 -2.4375 6.79557292 -4 8 C-4.66 7.67 -5.32 7.34 -6 7 C-5.04882866 5.8274869 -4.08882991 4.66212985 -3.125 3.5 C-2.59132812 2.8503125 -2.05765625 2.200625 -1.5078125 1.53125 C-0.76144531 0.77328125 -0.76144531 0.77328125 0 0 Z " transform="translate(230,99)" style="fill: #D1490A;"/></svg>