<svg id="svg" version="1.1" xmlns="http://www.w3.org/2000/svg" style="display: block;" viewBox="0 0 500 500"><path d="M0 0 C165 0 330 0 500 0 C500 165 500 330 500 500 C335 500 170 500 0 500 C0 335 0 170 0 0 Z " transform="translate(0,0)" style="fill: #FEFEFE;"/><path d="M0 0 C2 1 2 1 3.11328125 4.0625 C3.51747119 5.37363633 3.91693597 6.68623553 4.3125 8 C6.24839271 14.13796571 8.65097113 19.48879108 12 25 C12.44279297 26.04607422 12.44279297 26.04607422 12.89453125 27.11328125 C14.29848751 29.50943274 15.50615542 29.80691719 18 31 C30.03021663 40.74334814 39.75915988 52.19558303 45 67 C45.25749023 67.70995117 45.51498047 68.41990234 45.78027344 69.15136719 C48.62276898 78.01008398 48.55031314 86.79327095 48.5 96 C48.49890228 96.82159607 48.49780457 97.64319214 48.49667358 98.48968506 C48.44874025 110.96543892 47.56783831 122.27039857 43 134 C42.62746094 135.06089844 42.25492188 136.12179688 41.87109375 137.21484375 C38.80107616 145.01290236 33.79287381 152.54705904 26.18359375 156.44140625 C23.47588231 157.43975972 20.78805394 158.25996099 18 159 C16.1746875 159.61875 16.1746875 159.61875 14.3125 160.25 C13.549375 160.4975 12.78625 160.745 12 161 C10.95158964 164.87019571 11.0451878 167.0532993 12.546875 170.7578125 C12.8975 171.63050781 13.248125 172.50320313 13.609375 173.40234375 C13.98578125 174.30082031 14.3621875 175.19929687 14.75 176.125 C15.1109375 177.03121094 15.471875 177.93742188 15.84375 178.87109375 C18.09770159 184.47913259 18.09770159 184.47913259 22 189 C22.38671875 188.16275391 22.38671875 188.16275391 22.78125 187.30859375 C26.77082067 179.75142623 32.70551166 173.06032059 37.93334961 166.3347168 C41.59243666 161.59662389 45.08071721 156.74424495 48.5625 151.875 C52.80226218 145.95556405 57.15677688 140.21146059 61.83203125 134.625 C64.24955129 131.6978406 66.57076722 128.70380316 68.875 125.6875 C75.5000373 117.02229792 82.22669966 108.43754952 89.0625 99.9375 C93.80173057 94.03035314 98.39692244 88.01324883 103 82 C108.24252752 75.15140315 113.4953082 68.31731626 118.91796875 61.609375 C121.98259144 57.76853455 124.98844336 53.88251362 128 50 C130.45788828 46.83298754 132.91632221 43.66639955 135.375 40.5 C136.00277344 39.69046875 136.63054687 38.8809375 137.27734375 38.046875 C137.87417969 37.27859375 138.47101563 36.5103125 139.0859375 35.71875 C139.6226709 35.02716797 140.1594043 34.33558594 140.71240234 33.62304688 C142 32 142 32 143 31 C146.1050725 30.90466347 149.18786458 30.87448874 152.29321289 30.88647461 C153.26871597 30.88632858 154.24421906 30.88618256 155.24928284 30.8860321 C158.49042953 30.88673167 161.73151954 30.89452609 164.97265625 30.90234375 C167.21325143 30.90420778 169.45384702 30.90563175 171.69444275 30.90663147 C177.6045951 30.91045787 183.51472305 30.9202892 189.42486572 30.93133545 C195.45055817 30.94154694 201.47625453 30.94612853 207.50195312 30.95117188 C219.33464616 30.96191136 231.16732106 30.97898924 243 31 C241.38182825 34.40829937 239.52234036 36.79530758 236.9375 39.5625 C233.72708915 43.05918953 230.65543761 46.60799393 227.6875 50.3125 C223.274613 55.76871405 218.55528972 60.88615451 213.7734375 66.015625 C209.45771049 70.64558998 205.33695457 75.43416182 201.2265625 80.24609375 C200.19281626 81.4558214 199.1589589 82.6654541 198.125 83.875 C197.60292969 84.48593506 197.08085937 85.09687012 196.54296875 85.72631836 C192.87335564 90.00963079 189.12447183 94.2116175 185.33203125 98.38671875 C182.56599137 101.48635138 179.87734054 104.64681437 177.1875 107.8125 C172.63146983 113.16764166 167.94485194 118.37709238 163.15356445 123.5222168 C159.95948121 126.95270336 156.83950538 130.43188891 153.7734375 133.9765625 C151.54861908 136.51501171 149.27496681 139.00641776 147 141.5 C143.54040633 145.29355143 140.1241362 149.11638131 136.76171875 152.99609375 C135.51012501 154.41974694 134.23981755 155.82704363 132.95703125 157.22265625 C124.15093761 166.80805021 115.92244151 176.95914393 109 188 C110.43952597 186.89847594 111.87654071 185.7936696 113.3125 184.6875 C114.11300781 184.07261719 114.91351563 183.45773437 115.73828125 182.82421875 C117.62701374 181.30083693 119.33077636 179.75565593 121 178 C124.9810133 179.5332281 126.73976183 181.92894471 129.25 185.3125 C130.13513659 186.49369951 131.02057491 187.67467295 131.90625 188.85546875 C132.39480469 189.51208496 132.88335937 190.16870117 133.38671875 190.84521484 C135.147755 193.19734952 136.93087363 195.53148628 138.71875 197.86328125 C147.10641887 208.80524083 155.34557868 219.84701712 163.50146484 230.96240234 C168.47753641 237.7284977 173.54612945 244.42121583 178.6875 251.0625 C182.79799425 256.37296728 186.78335321 261.76898718 190.75 267.1875 C195.40205419 273.53845528 200.14101868 279.80599141 205 286 C211.0274163 293.6865162 216.84472643 301.51155673 222.6171875 309.390625 C225.80238101 313.73820495 229.01638351 318.06333699 232.25 322.375 C232.73388184 323.02041748 233.21776367 323.66583496 233.71630859 324.33081055 C237.44720315 329.29331781 241.2280319 334.21666191 245.05566406 339.10498047 C248 342.89212342 248 342.89212342 248 344 C234.16258693 344.53958319 220.32682216 344.94239031 206.48101616 345.19167995 C200.04986035 345.31138809 193.62580004 345.47343695 187.19873047 345.73510742 C180.98643642 345.9864289 174.78092488 346.12278528 168.56393814 346.18217659 C166.20199798 346.22444396 163.8404012 346.30701533 161.48138046 346.43179131 C146.49895811 347.19219586 146.49895811 347.19219586 140 344 C134.14539597 338.41740972 130.83415768 331.17226476 127.4764595 323.92756844 C125.53435822 320.07671143 123.1487214 316.67731569 120.5989666 313.20828915 C118.01447642 309.63892028 115.81200762 305.84807376 113.5625 302.0625 C109.9460448 296.05693259 106.17169889 290.31070281 101.9609375 284.69921875 C98.85265479 280.42068618 96.06157992 275.94647246 93.2265625 271.484375 C91.15613334 268.22853071 89.02487571 265.01656187 86.875 261.8125 C84.34005834 258.0326761 81.86268363 254.2261268 79.4375 250.375 C76.57984535 245.8525649 73.57553388 241.45658781 70.48046875 237.09375 C69.29321054 235.41467243 68.14069932 233.71104898 67 232 C63.45560466 233.47946859 61.49749421 235.42240727 59 238.3125 C57.82630859 239.64667969 57.82630859 239.64667969 56.62890625 241.0078125 C55.76136719 241.99523437 54.89382812 242.98265625 54 244 C47.67483014 251.06469558 41.39295993 258.02040006 34 264 C34.7081258 268.87915949 36.72842078 271.97339287 39.4296875 276.01171875 C43.86781062 284.45740081 44.41943925 292.60293117 44.29296875 302.0078125 C44.28872391 303.2144455 44.28447906 304.42107849 44.28010559 305.66427612 C44.26343155 309.48475293 44.2257995 313.304685 44.1875 317.125 C44.17243863 319.729159 44.15875278 322.33332634 44.14648438 324.9375 C44.11356497 331.29184975 44.06347877 337.64588594 44 344 C42.75633667 344.02187378 42.75633667 344.02187378 41.48754883 344.04418945 C21.06042916 344.3961711 21.06042916 344.3961711 0.75 346.4375 C-0.10489014 346.55971924 -0.95978027 346.68193848 -1.84057617 346.80786133 C-5.49567368 347.38915667 -7.88194666 347.92129777 -11 350 C-26.9594534 351.59387537 -43.74346314 348.70347085 -56.71484375 338.9609375 C-68.75411772 328.71397649 -76.81256314 314.56282174 -78.20483398 298.66040039 C-78.30184569 296.290402 -78.32796926 293.93437244 -78.3125 291.5625 C-78.31121094 290.73645264 -78.30992188 289.91040527 -78.30859375 289.05932617 C-78.21170918 282.90533964 -77.26734466 277.76283436 -75 272 C-77.31 273.65 -79.62 275.3 -82 277 C-82.391875 275.68 -82.78375 274.36 -83.1875 273 C-87.27520947 261.10848153 -94.88854265 255.50529321 -105.37890625 248.859375 C-106.67634766 247.93898438 -106.67634766 247.93898438 -108 247 C-108 246.34 -108 245.68 -108 245 C-108.5775 244.77054688 -109.155 244.54109375 -109.75 244.3046875 C-116.73124102 240.25653733 -121.16469958 231.02221744 -123.37890625 223.5234375 C-124.16965062 219.0375795 -124.3887713 214.67417217 -124.4375 210.125 C-124.4478125 209.31611328 -124.458125 208.50722656 -124.46875 207.67382812 C-124.36987277 201.05454664 -122.44823955 196.02844471 -118 191 C-117.34 191 -116.68 191 -116 191 C-115.86464844 191.59425781 -115.72929688 192.18851563 -115.58984375 192.80078125 C-112.65627173 204.09591185 -106.95252667 212.78780198 -97 219 C-92.56529706 221.5203436 -88.11878505 223.60178837 -83.3125 225.3125 C-79.14610894 226.80353975 -75.28459596 228.81988908 -71.375 230.875 C-70.74118408 231.20282471 -70.10736816 231.53064941 -69.4543457 231.8684082 C-65.17269236 234.15721571 -61.6400461 236.78555929 -58 240 C-57.35004703 238.58521865 -56.70521278 237.16808513 -56.0625 235.75 C-55.70285156 234.96109375 -55.34320313 234.1721875 -54.97265625 233.359375 C-54.09201153 231.22319263 -53.47371807 229.25580035 -53 227 C-52.86335938 226.360625 -52.72671875 225.72125 -52.5859375 225.0625 C-51.86780882 218.04079733 -55.28473399 214.26102255 -59.5546875 208.98046875 C-60.76511719 207.50513672 -60.76511719 207.50513672 -62 206 C-64.41826437 202.72223203 -66.72937876 199.38142876 -69 196 C-69.54785156 195.18917969 -70.09570312 194.37835938 -70.66015625 193.54296875 C-77.18212445 183.3674164 -79.26925346 173.05077719 -78 161 C-75.02564138 149.62349838 -65.84852735 142.94341737 -57 136 C-56.34 136.33 -55.68 136.66 -55 137 C-54.97421875 138.27875 -54.9484375 139.5575 -54.921875 140.875 C-54.86555525 142.58336565 -54.80820882 144.29169767 -54.75 146 C-54.73582031 146.83917969 -54.72164063 147.67835938 -54.70703125 148.54296875 C-54.48108234 154.37245057 -53.4492218 159.18466213 -50 164 C-45.97605812 166.68262792 -42.72663849 166.67768501 -38 166 C-34.08966111 163.42740863 -32.14818312 159.46971285 -31 155 C-29.51229906 145.28143188 -32.42077991 135.74189049 -34.7109375 126.3671875 C-39.07684399 108.40042732 -40.47251607 90.28970874 -31.25 73.5 C-30.51967321 72.3209182 -29.77814649 71.14808499 -29 70 C-25.94493136 73.69113971 -23.97010594 77.81815158 -21.8125 82.0625 C-16.39771137 92.71910105 -16.39771137 92.71910105 -9 102 C-6.37263275 102.83991788 -6.37263275 102.83991788 -4 103 C3.80332953 84.46709237 -3.99333991 66.37542562 -10.96484375 48.890625 C-14.88383858 37.94701678 -15.61372879 25.956937 -10.7421875 15.23046875 C-7.74893979 9.50255232 -4.40523823 4.7198981 0 0 Z " transform="translate(192,90)" style="fill: #FD7A1C;"/><path d="M0 0 C0.66 0 1.32 0 2 0 C2.08040527 0.58491211 2.16081055 1.16982422 2.24365234 1.77246094 C2.61351214 4.43270789 2.99414033 7.09130653 3.375 9.75 C3.50132812 10.67039062 3.62765625 11.59078125 3.7578125 12.5390625 C3.88671875 13.42851563 4.015625 14.31796875 4.1484375 15.234375 C4.26364746 16.05131836 4.37885742 16.86826172 4.49755859 17.70996094 C5.24205796 21.10325735 5.94685684 23.28920652 8.8918457 25.27685547 C9.64554443 25.63666504 10.39924316 25.99647461 11.17578125 26.3671875 C12.00400391 26.77839844 12.83222656 27.18960938 13.68554688 27.61328125 C15.42427876 28.44838965 17.16385155 29.28174972 18.90429688 30.11328125 C25.50729581 33.39687948 30.23967373 36.85236577 32.875 44.0625 C33.98907587 47.4367413 34.42221147 49.62224776 33 53 C29.84181079 57.60193285 27.46438233 59.72921341 22 61 C21.87625 61.763125 21.7525 62.52625 21.625 63.3125 C21 66 21 66 19 69 C18.61767169 71.07769293 18.61767169 71.07769293 18.5 73.3125 C18.15770682 77.12128958 17.38054769 80.41057601 16 84 C12.7815744 83.40842943 10.99019049 82.42539009 8.5625 80.25 C7.65951172 79.44369141 7.65951172 79.44369141 6.73828125 78.62109375 C4.432088 76.47037421 2.19896493 74.26004729 0 72 C-0.5775 71.46375 -1.155 70.9275 -1.75 70.375 C-4.50585406 67.34356053 -4.44481079 63.36883824 -4.42578125 59.48046875 C-3.77114397 55.66675617 -1.80511615 53.08939315 0.4921875 50.04296875 C1.92910209 48.09606116 2.98580863 46.19085029 4 44 C3.55269531 43.61070313 3.10539063 43.22140625 2.64453125 42.8203125 C-2.97226837 37.62267703 -7.2637368 31.97152958 -8.41015625 24.23046875 C-8.71545806 14.73956454 -6.02929658 7.26607537 0 0 Z " transform="translate(126,54)" style="fill: #FA661F;"/><path d="M0 0 C7.15685273 4.04627716 14.40192761 10.73847364 17.3125 18.5 C16.85952077 23.5733674 14.51595604 26.42935131 11 30 C9.03625365 31.38617389 7.04087808 32.73012031 5 34 C3.97676564 35.31558703 2.96873032 36.64377755 2 38 C1.34 38 0.68 38 0 38 C-0.01458252 37.44650879 -0.02916504 36.89301758 -0.04418945 36.32275391 C-0.4276195 23.30239096 -0.89587495 12.26861215 -8 1 C-4.97051026 -0.00982991 -3.1530143 -0.30482313 0 0 Z " transform="translate(81,213)" style="fill: #F88019;"/><path d="M0 0 C0.33 0 0.66 0 1 0 C1.13535156 0.78761719 1.27070312 1.57523437 1.41015625 2.38671875 C3.66241424 13.78287446 8.26648575 23.32909008 16 32 C16 32.66 16 33.32 16 34 C16.55558594 34.25910156 17.11117187 34.51820313 17.68359375 34.78515625 C20.2936616 36.1540114 22.63108448 37.77239217 25.0625 39.4375 C36.75546619 46.93658898 49.50930985 47.18508569 63 47 C62.505 47.99 62.505 47.99 62 49 C62.66 49.66 63.32 50.32 64 51 C46.202469 51.69042146 29.77423651 49.73961333 15.6875 37.75 C7.65042772 30.03492581 0.24092063 19.8861328 -1.33984375 8.56640625 C-1.39109114 5.46309204 -0.98193492 2.94580477 0 0 Z " transform="translate(117,389)" style="fill: #F3A618;"/><path d="M0 0 C1.9146229 2.39327863 3.4262003 4.75616183 4.9375 7.4375 C10.22927435 16.70302311 17.51334465 22.02753419 27.625 25.375 C38.48465124 28.9711468 50.03202701 34.63362836 58 43 C58 43.99 58 44.98 58 46 C57.34 46 56.68 46 56 46 C56 45.34 56 44.68 56 44 C55.49082031 43.75894531 54.98164063 43.51789063 54.45703125 43.26953125 C51.81575274 41.9048007 49.27869282 40.39152069 46.72070312 38.87817383 C40.6238686 35.30777734 34.7811622 32.33952931 28 30.3125 C22.64357411 28.6886572 18.80995116 26.89960099 14.5703125 23.265625 C12.94113817 21.80459452 12.94113817 21.80459452 10.25 21.0625 C6.75101424 19.41020117 5.67558536 16.29776561 4 13 C3.25145227 11.81158402 2.50148751 10.62405922 1.75 9.4375 C-0.05931769 5.88348311 -0.38201934 3.91569823 0 0 Z " transform="translate(77,288)" style="fill: #F79210;"/><path d="M0 0 C2.54685809 0.0785782 3.81954973 0.17584047 6.0625 1.4375 C7.54151666 4.21065624 7.44851984 6.22434125 7.0625 9.3125 C5.875 11.1875 5.875 11.1875 4.0625 12.3125 C1.6875 12.8125 1.6875 12.8125 -0.9375 12.3125 C-4.00373101 9.92765366 -5.74017527 8.52463766 -6.375 4.625 C-5.57753717 0.40983934 -4.17321174 0.33120728 0 0 Z " transform="translate(227.9375,96.6875)" style="fill: #F36225;"/><path d="M0 0 C3.2542015 2.83430453 4.5206753 4.68607774 5 9 C7.64 9 10.28 9 13 9 C12.88610125 10.79240663 12.75852313 12.58394835 12.625 14.375 C12.55539063 15.37273437 12.48578125 16.37046875 12.4140625 17.3984375 C12 20 12 20 10 22 C9.63168919 23.93257855 9.63168919 23.93257855 9.5859375 26.1328125 C9.52792969 27.34130859 9.52792969 27.34130859 9.46875 28.57421875 C9.42234375 29.83685547 9.42234375 29.83685547 9.375 31.125 C9.31699219 32.39923828 9.31699219 32.39923828 9.2578125 33.69921875 C9.16343506 35.79911684 9.08062414 37.89952891 9 40 C8.67 40 8.34 40 8 40 C7.44646925 20.03189066 7.44646925 20.03189066 11 11 C8.69 12.65 6.38 14.3 4 16 C2.33333333 11 0.66666667 6 -1 1 C-0.67 0.67 -0.34 0.34 0 0 Z " transform="translate(106,351)" style="fill: #F09C1C;"/><path d="M0 0 C2.46344806 0.37393375 3.69098048 0.65068557 5.36865234 2.54711914 C5.77035645 3.20317139 6.17206055 3.85922363 6.5859375 4.53515625 C7.04226562 5.26283203 7.49859375 5.99050781 7.96875 6.74023438 C8.4328125 7.50658203 8.896875 8.27292969 9.375 9.0625 C10.29643143 10.55527097 11.22091154 12.04616443 12.1484375 13.53515625 C12.83631348 14.64721436 12.83631348 14.64721436 13.53808594 15.78173828 C15.46433574 18.70456822 17.63783377 21.39455016 19.88525391 24.07592773 C21.29334457 26.50631812 21.20184193 28.23762347 21 31 C20.41734375 30.2678125 19.8346875 29.535625 19.234375 28.78125 C17.88531156 27.10199621 16.52417348 25.43220701 15.140625 23.78125 C9.34705344 16.79065952 2.89977697 8.69933092 0 0 Z " transform="translate(118,276)" style="fill: #F38A14;"/><path d="M0 0 C1.8125 1.1875 1.8125 1.1875 3 3 C3.4334014 5.88934264 3.42525784 7.35092224 1.8125 9.8125 C-0.64907776 11.42525784 -2.11065736 11.4334014 -5 11 C-6.8125 9.8125 -6.8125 9.8125 -8 8 C-8.4334014 5.11065736 -8.42525784 3.64907776 -6.8125 1.1875 C-4.35092224 -0.42525784 -2.88934264 -0.4334014 0 0 Z " transform="translate(118,198)" style="fill: #E78A28;"/><path d="M0 0 C3.5478242 4.23396001 6.52301062 8.73511464 9.5 13.375 C9.97308594 14.10460937 10.44617188 14.83421875 10.93359375 15.5859375 C12.30548529 17.7140795 13.65705018 19.85349837 15 22 C15.41894531 22.65774414 15.83789062 23.31548828 16.26953125 23.99316406 C17.26145733 25.6148439 18.14144465 27.30393232 19 29 C18.67 29.99 18.34 30.98 18 32 C12.92710438 25.40087504 8.33618302 18.56139778 3.9375 11.5 C3.43629639 10.71061035 2.93509277 9.9212207 2.41870117 9.10791016 C1.95955322 8.3607373 1.50040527 7.61356445 1.02734375 6.84375 C0.40460571 5.84118164 0.40460571 5.84118164 -0.23071289 4.81835938 C-1 3 -1 3 0 0 Z " transform="translate(306,388)" style="fill: #F38817;"/><path d="M0 0 C4.66491814 3.01847644 6.8323418 6.75548555 9.5078125 11.46875 C10.84035173 13.72918304 12.26888621 15.74360766 13.875 17.8125 C16.00365737 21.00548605 16.56426338 22.27586167 16 26 C12.25325349 21.50754181 9.00522986 16.72669426 5.75 11.875 C5.19570313 11.06417969 4.64140625 10.25335938 4.0703125 9.41796875 C3.28527344 8.24814453 3.28527344 8.24814453 2.484375 7.0546875 C2.00709961 6.34812012 1.52982422 5.64155273 1.03808594 4.91357422 C0 3 0 3 0 0 Z " transform="translate(289,364)" style="fill: #F08719;"/><path d="M0 0 C0.66 0.66 1.32 1.32 2 2 C0.15691355 6.1469445 -1.33181812 8.39677415 -5 11 C-5.309375 11.680625 -5.61875 12.36125 -5.9375 13.0625 C-7.40783368 15.74369672 -9.19922074 15.98848261 -12 17 C-8.19648587 11.17334006 -4.23982103 5.51778127 0 0 Z " transform="translate(247,233)" style="fill: #F07820;"/><path d="M0 0 C1.4540625 0.0309375 1.4540625 0.0309375 2.9375 0.0625 C3.5625 1.875 3.5625 1.875 3.9375 4.0625 C2.9475 5.5475 2.9475 5.5475 1.9375 7.0625 C-0.625 7.3125 -0.625 7.3125 -3.0625 7.0625 C-4.0625 6.0625 -4.0625 6.0625 -4.1875 3.5625 C-4.00295237 -0.12845252 -3.76342282 0.07680455 0 0 Z " transform="translate(115.0625,200.9375)" style="fill: #FE9D01;"/><path d="M0 0 C0.125 6.625 0.125 6.625 -1 10 C-3.46800047 8.84826645 -5.04783565 7.95216435 -7 6 C-7 5.01 -7 4.02 -7 3 C-2.77777778 0 -2.77777778 0 0 0 Z " transform="translate(221,70)" style="fill: #D85F32;"/><path d="M0 0 C2.13209391 2.75290949 4.01356503 5.54416744 5.75 8.5625 C6.19859375 9.32691406 6.6471875 10.09132812 7.109375 10.87890625 C8 13 8 13 7 16 C6.67 15.01 6.34 14.02 6 13 C5.34 13 4.68 13 4 13 C2.68 10.36 1.36 7.72 0 5 C-1.485 5.99 -1.485 5.99 -3 7 C-1.125 1.125 -1.125 1.125 0 0 Z " transform="translate(163,160)" style="fill: #EA7826;"/><path d="M0 0 C0.66 0 1.32 0 2 0 C2.125 3.375 2.125 3.375 2 7 C1.34 7.66 0.68 8.32 0 9 C-0.36831081 10.93257855 -0.36831081 10.93257855 -0.4140625 13.1328125 C-0.45273438 13.93847656 -0.49140625 14.74414062 -0.53125 15.57421875 C-0.5621875 16.41597656 -0.593125 17.25773437 -0.625 18.125 C-0.66367188 18.97449219 -0.70234375 19.82398438 -0.7421875 20.69921875 C-0.83656494 22.79911684 -0.91937586 24.89952891 -1 27 C-1.33 27 -1.66 27 -2 27 C-2.05444001 23.99975053 -2.0938836 21.00050961 -2.125 18 C-2.14175781 17.16082031 -2.15851563 16.32164062 -2.17578125 15.45703125 C-2.21849117 9.94745123 -1.55502007 5.28951708 0 0 Z " transform="translate(116,364)" style="fill: #DFA040;"/><path d="M0 0 C1.65 0 3.3 0 5 0 C5.1875 2.875 5.1875 2.875 5 6 C4.01 6.66 3.02 7.32 2 8 C0.4375 6.8125 0.4375 6.8125 -1 5 C-0.6875 2.3125 -0.6875 2.3125 0 0 Z " transform="translate(189,32)" style="fill: #EA6019;"/><path d="M0 0 C0.66 0.33 1.32 0.66 2 1 C1.61328125 1.42410156 1.2265625 1.84820312 0.828125 2.28515625 C-2.7394097 6.30304806 -5.48173429 10.25403771 -8 15 C-8.66 14.34 -9.32 13.68 -10 13 C-8.63013109 8.51679267 -6.68629532 6.7871989 -3 4 C-1.23676495 1.87396815 -1.23676495 1.87396815 0 0 Z " transform="translate(257,223)" style="fill: #FB6F10;"/><path d="M0 0 C0.66 0.33 1.32 0.66 2 1 C1.34 2.32 0.68 3.64 0 5 C-0.66 5 -1.32 5 -2 5 C-2.061875 5.556875 -2.12375 6.11375 -2.1875 6.6875 C-3.35672428 10.01529218 -5.35322804 11.73133832 -8 14 C-8.99 14 -9.98 14 -11 14 C-7.37 9.38 -3.74 4.76 0 0 Z " transform="translate(262,214)" style="fill: #EC721F;"/><path d="M0 0 C1.4540625 0.0309375 1.4540625 0.0309375 2.9375 0.0625 C2.9375 0.7225 2.9375 1.3825 2.9375 2.0625 C1.6175 2.0625 0.2975 2.0625 -1.0625 2.0625 C-1.0625 4.0425 -1.0625 6.0225 -1.0625 8.0625 C-2.0525 7.4025 -3.0425 6.7425 -4.0625 6.0625 C-4.3125 3.5 -4.3125 3.5 -4.0625 1.0625 C-3.0625 0.0625 -3.0625 0.0625 0 0 Z " transform="translate(226.0625,97.9375)" style="fill: #FA540D;"/><path d="M0 0 C0.66 0.33 1.32 0.66 2 1 C0.90653119 2.34212062 -0.2001575 3.67347975 -1.3125 5 C-2.23482422 6.11375 -2.23482422 6.11375 -3.17578125 7.25 C-5 9 -5 9 -8 9 C-7.04270084 7.87411986 -6.08412105 6.7493285 -5.125 5.625 C-4.59132812 4.99851562 -4.05765625 4.37203125 -3.5078125 3.7265625 C-2.38567993 2.44163349 -1.20628025 1.20628025 0 0 Z " transform="translate(252,324)" style="fill: #EC831E;"/><path d="M0 0 C2.23960447 2.87949147 4.29864224 5.76742026 6 9 C5.67 9.66 5.34 10.32 5 11 C2 10 2 10 0.8125 8.3125 C-0.19313465 5.45030907 -0.13689641 3.01172092 0 0 Z " transform="translate(77,288)" style="fill: #EA9129;"/><path d="M0 0 C0.66 0.33 1.32 0.66 2 1 C0.4375 3.5 0.4375 3.5 -2 6 C-5.75 6.3125 -5.75 6.3125 -9 6 C-6.12050853 3.76039553 -3.23257974 1.70135776 0 0 Z " transform="translate(216,242)" style="fill: #FB780D;"/><path d="M0 0 C2 1.75 2 1.75 4 4 C4 5.32 4 6.64 4 8 C3.01 7.67 2.02 7.34 1 7 C-0.1875 3.9375 -0.1875 3.9375 -1 1 C-0.67 0.67 -0.34 0.34 0 0 Z " transform="translate(106,351)" style="fill: #F69B10;"/><path d="M0 0 C0.99 0.66 1.98 1.32 3 2 C0.22719294 5.08089673 -2.06326356 6.68775452 -6 8 C-4.02 5.36 -2.04 2.72 0 0 Z " transform="translate(225,263)" style="fill: #EE8026;"/><path d="M0 0 C0.66 0.99 1.32 1.98 2 3 C-0.97 5.475 -0.97 5.475 -4 8 C-4 4.09161134 -2.49432124 2.88405893 0 0 Z " transform="translate(240,336)" style="fill: #EA8E33;"/><path d="M0 0 C0.1546875 1.175625 0.1546875 1.175625 0.3125 2.375 C0.77595022 5.33045181 0.77595022 5.33045181 4 7 C2.33388095 7.042721 0.66617115 7.04063832 -1 7 C-2 6 -2 6 -2.125 3.5 C-1.95 0 -1.95 0 0 0 Z " transform="translate(113,201)" style="fill: #FC8806;"/></svg>